<svg width="25" height="26" viewBox="0 0 25 26" fill="none" xmlns="http://www.w3.org/2000/svg">
<path d="M9.5189 7.84156L12.7836 11.1615L21.3843 2.41523C22.3828 1.39987 24.0016 1.39987 25 2.41523L9.5189 18.1584C9.96874 18.9327 10.2269 19.8357 10.2269 20.8C10.2269 23.6718 7.93752 26 5.11344 26C2.28936 26 0 23.6718 0 20.8C0 17.9282 2.28936 15.6 5.11344 15.6C6.06174 15.6 6.94974 15.8625 7.71103 16.3199L10.9757 13L7.71103 9.68005C6.94974 10.1375 6.06174 10.4 5.11344 10.4C2.28936 10.4 0 8.07188 0 5.2C0 2.32812 2.28936 0 5.11344 0C7.93752 0 10.2269 2.32812 10.2269 5.2C10.2269 6.16435 9.96874 7.0674 9.5189 7.84156ZM16.3956 14.8347L25 23.5847C24.0016 24.6002 22.3828 24.6002 21.3843 23.5847L14.5878 16.6731L16.3956 14.8347ZM6.92131 18.9615C6.45863 18.4911 5.81945 18.2 5.11344 18.2C3.7014 18.2 2.55672 19.364 2.55672 20.8C2.55672 22.236 3.7014 23.4 5.11344 23.4C6.52548 23.4 7.67016 22.236 7.67016 20.8C7.67016 20.082 7.38399 19.432 6.92131 18.9615ZM6.92131 7.03849C7.38399 6.56798 7.67016 5.91798 7.67016 5.2C7.67016 3.76406 6.52548 2.6 5.11344 2.6C3.7014 2.6 2.55672 3.76406 2.55672 5.2C2.55672 6.63594 3.7014 7.8 5.11344 7.8C5.81945 7.8 6.45863 7.50899 6.92131 7.03849Z" fill="#E78383"/>
</svg>
